<?xml version="1.0" encoding="UTF-8" standalone="no"?>
<svg width="400" height="400" viewBox="0 0 32 32" xmlns="http://www.w3.org/2000/svg">
  <title>Banana</title>
  <style>
    .pixel { width: 1px; height: 1px; }
    .banana-yellow { fill: #ffd700; }
    .banana-dark { fill: #e6b800; }
    .banana-light { fill: #ffed75; }
    .banana-brown { fill: #8b4513; }
    .banana-tip { fill: #704214; }
    .banana-white { fill: #fffff0; }
    .background { fill: transparent; }
  </style>

  <rect class="background" x="0" y="0" width="32" height="32" />

  <rect class="banana-brown" x="12" y="5" width="1" height="1" />
  <rect class="banana-brown" x="13" y="4" width="2" height="1" />
  <rect class="banana-brown" x="15" y="5" width="1" height="1" />
  <rect class="banana-tip" x="13" y="5" width="2" height="1" />

  <rect class="banana-yellow" x="11" y="6" width="2" height="1" />
  <rect class="banana-yellow" x="10" y="7" width="4" height="1" />
  <rect class="banana-yellow" x="9" y="8" width="6" height="1" />
  <rect class="banana-yellow" x="8" y="9" width="8" height="1" />
  <rect class="banana-yellow" x="8" y="10" width="9" height="1" />
  <rect class="banana-yellow" x="8" y="11" width="10" height="1" />
  <rect class="banana-yellow" x="9" y="12" width="10" height="1" />
  <rect class="banana-yellow" x="10" y="13" width="11" height="1" />
  <rect class="banana-yellow" x="11" y="14" width="11" height="1" />
  <rect class="banana-yellow" x="11" y="15" width="12" height="1" />
  <rect class="banana-yellow" x="12" y="16" width="12" height="1" />
  <rect class="banana-yellow" x="13" y="17" width="12" height="1" />
  <rect class="banana-yellow" x="14" y="18" width="11" height="1" />
  <rect class="banana-yellow" x="15" y="19" width="10" height="1" />
  <rect class="banana-yellow" x="16" y="20" width="8" height="1" />
  <rect class="banana-yellow" x="17" y="21" width="6" height="1" />
  <rect class="banana-yellow" x="18" y="22" width="4" height="1" />
  <rect class="banana-yellow" x="19" y="23" width="2" height="1" />

  <rect class="banana-light" x="11" y="7" width="2" height="1" />
  <rect class="banana-light" x="10" y="8" width="3" height="1" />
  <rect class="banana-light" x="9" y="9" width="4" height="1" />
  <rect class="banana-light" x="9" y="10" width="5" height="1" />
  <rect class="banana-light" x="10" y="11" width="5" height="1" />
  <rect class="banana-light" x="11" y="12" width="5" height="1" />
  <rect class="banana-light" x="12" y="13" width="6" height="1" />
  <rect class="banana-light" x="13" y="14" width="6" height="1" />
  <rect class="banana-light" x="14" y="15" width="6" height="1" />
  <rect class="banana-light" x="15" y="16" width="6" height="1" />
  <rect class="banana-light" x="16" y="17" width="6" height="1" />
  <rect class="banana-light" x="17" y="18" width="5" height="1" />
  <rect class="banana-light" x="18" y="19" width="4" height="1" />
  <rect class="banana-light" x="19" y="20" width="3" height="1" />
  <rect class="banana-light" x="20" y="21" width="2" height="1" />

  <rect class="banana-dark" x="8" y="10" width="1" height="1" />
  <rect class="banana-dark" x="9" y="11" width="1" height="1" />
  <rect class="banana-dark" x="10" y="12" width="1" height="1" />
  <rect class="banana-dark" x="11" y="13" width="1" height="1" />
  <rect class="banana-dark" x="12" y="14" width="1" height="1" />
  <rect class="banana-dark" x="13" y="15" width="1" height="1" />
  <rect class="banana-dark" x="14" y="16" width="1" height="1" />
  <rect class="banana-dark" x="15" y="17" width="1" height="1" />
  <rect class="banana-dark" x="16" y="18" width="1" height="1" />
  <rect class="banana-dark" x="17" y="19" width="1" height="1" />
  <rect class="banana-dark" x="18" y="20" width="1" height="1" />
  <rect class="banana-dark" x="19" y="21" width="1" height="1" />

  <rect class="banana-dark" x="12" y="9" width="1" height="1" />
  <rect class="banana-dark" x="15" y="11" width="1" height="1" />
  <rect class="banana-dark" x="19" y="14" width="1" height="1" />
  <rect class="banana-dark" x="16" y="16" width="1" height="1" />
  <rect class="banana-dark" x="21" y="18" width="1" height="1" />

  <rect class="banana-tip" x="19" y="24" width="1" height="1" />
  <rect class="banana-tip" x="20" y="23" width="1" height="1" />
</svg>